<svg xmlns="http://www.w3.org/2000/svg" viewBox="0 0 512 512" role="img" aria-labelledby="title desc">
  <title id="title">BI Doc Maker</title>
  <desc id="desc">Logo do BI Doc Maker com icone de documento em amarelo sobre fundo escuro.</desc>
  <rect width="512" height="512" rx="104" fill="#0A0A0C"/>
  <rect x="18" y="18" width="476" height="476" rx="90" fill="none" stroke="#F5C518" stroke-opacity="0.16" stroke-width="6"/>
  <path fill="#F5C518" d="M180 105h145l85 85v185c0 25-20 45-45 45H180c-25 0-45-20-45-45V150c0-25 20-45 45-45Z"/>
  <path fill="#0A0A0C" d="M195 135h105v63c0 22 18 40 40 40h40v127c0 14-11 25-25 25H195c-17 0-30-13-30-30V165c0-17 13-30 30-30Z"/>
  <path fill="#0A0A0C" d="M350 150l35 40h-35v-40Z"/>
  <rect x="220" y="230" width="72" height="26" rx="13" fill="#F5C518"/>
  <rect x="220" y="290" width="135" height="26" rx="13" fill="#F5C518"/>
  <rect x="220" y="350" width="135" height="26" rx="13" fill="#F5C518"/>
</svg>
